<svg width="20" height="29" viewBox="0 0 20 29" fill="none" xmlns="http://www.w3.org/2000/svg">
<g clip-path="url(#clip0)">
<path d="M2.26589 28.1563C1.76643 28.0028 1.57783 27.7562 1.6752 27.3838C1.75996 27.0597 2.51436 26.8091 3.67826 26.7184C4.26615 26.6725 4.94208 26.5641 5.18032 26.4775C6.4221 26.0259 7.63581 25.0996 7.94014 24.3713C8.02039 24.1792 8.17346 22.9113 8.30216 21.3726C8.50777 18.9145 8.51253 18.6928 8.36332 18.5279C8.27432 18.4296 7.54148 18.0189 6.7348 17.6153C5.44449 16.9697 5.17529 16.79 4.49623 16.121C3.79572 15.4308 3.68029 15.2588 3.24779 14.2599C2.72008 13.0412 1.81325 10.3659 1.53755 9.21445C1.37217 8.52373 1.31569 8.42862 0.735443 7.86369C0.266847 7.40746 0.0939128 7.16242 0.0417231 6.88074C-0.0834169 6.20531 0.0628918 5.79996 0.617487 5.28558L1.12372 4.81606L1.05209 2.78192C0.982508 0.805911 0.98652 0.740082 1.19242 0.47833C1.30899 0.330131 1.57116 0.162554 1.77502 0.105931C2.28357 -0.0353102 17.7167 -0.0353102 18.2252 0.105931C18.4291 0.162554 18.6922 0.331142 18.8101 0.480584C19.0182 0.744622 19.0221 0.804555 18.9484 2.60333C18.9067 3.62141 18.8776 4.53957 18.8837 4.64369C18.8898 4.74781 19.1185 5.04047 19.3919 5.29405C19.9368 5.79952 20.083 6.20879 19.9585 6.88074C19.9062 7.16275 19.733 7.40778 19.2612 7.86715C18.6784 8.43457 18.6207 8.53129 18.4551 9.2179C18.1695 10.4024 17.2704 13.0657 16.7528 14.2599C16.3201 15.2584 16.2042 15.4311 15.504 16.121C14.8249 16.79 14.5557 16.9697 13.2654 17.6153C12.4587 18.0189 11.7259 18.4296 11.6369 18.5279C11.4877 18.6928 11.4925 18.9156 11.6983 21.3861C11.8236 22.8908 11.9811 24.2091 12.0574 24.3932C12.3481 25.0944 13.5906 26.0316 14.8199 26.4769C15.0581 26.5632 15.7411 26.6747 16.3376 26.7246C17.5129 26.8231 18.2416 27.0648 18.325 27.3838C18.4254 27.7678 18.236 28.0006 17.6915 28.1623C16.9284 28.3889 3.0052 28.3835 2.26589 28.1563V28.1563Z" fill="white"/>
</g>
<defs>
<clipPath id="clip0">
<rect width="20" height="28.3295" fill="white"/>
</clipPath>
</defs>
</svg>
