<svg width="57" height="51" viewBox="0 0 57 51" fill="none" xmlns="http://www.w3.org/2000/svg">
<path fill-rule="evenodd" clip-rule="evenodd" d="M14 3.99997C14.0774 3.85113 22.5305 1.22613 28 0.999966C34.9667 0.711888 45.3876 4.99738 45.5 5.49997C45.6124 6.00255 39 9.49996 39 9.49996C39 9.49996 41.4652 9.79058 43 9.49996C44.8896 9.14218 47.5 7.49997 47.5 7.49997C47.5 7.49997 53.512 12.5135 55 17C56.538 21.637 58.0186 26.1106 54.5 29.5C52.4094 31.5138 50.2557 31.0875 47.5 32C44.9788 32.8348 42.4701 31.788 41 34C39.9138 35.6343 40.5177 37.0377 40.5 39C40.4806 41.1566 40.9123 42.345 41 44.5C41.0715 46.2559 41 49 41 49L37 50C37 50 36.6298 48.7945 36.5 48C36.2483 46.4583 37.1986 45.3971 36.5 44C36.006 43.012 35.5987 41.8863 34.5 42C33.1266 42.142 34.8035 44.3771 34 45.5C33.0292 46.8567 30 47 30 47C30 47 30.1697 45.1592 30 44C29.8835 43.2034 30.242 42.3124 29.5 42C28.6002 41.6211 28.4297 43.1233 28 44C27.2219 45.5877 27.5 48.5 27.5 48.5H24C22.5323 47.4918 22.8764 39.776 22 42C21.6963 42.7707 20.8575 42.7526 20.5 43.5C19.9043 44.7455 21.1421 45.6266 21 47C20.9172 47.8008 21.024 48.3887 20.5 49C19.4521 50.2225 17.406 49.3311 16.5 48C14.3725 44.8743 15.7634 42.5788 16 41C16.2952 39.0307 17.5435 37.9156 17 36C16.6893 34.9046 16.0831 34.4779 15.5 33.5C13.7621 30.5852 7.23284 34.488 3.00003 29.5C-0.287234 25.6262 0.886799 21.3176 2.50003 16.5C4.2149 11.3788 11.5 5.99997 11.5 5.99997C11.5 5.99997 11.8627 9.03775 13 10.5C14.8955 12.937 20.5 13 20.5 13C20.5 13 15.6741 11.1833 14.5 8.49997C13.7912 6.88008 14 3.99997 14 3.99997ZM12 17.5C9.03588 18.2189 6.86652 19.5755 6.00002 22.5C5.55625 23.9977 5.11906 25.21 6.00002 26.5C6.83868 27.728 8.07573 27.5724 9.50002 28C12.3115 28.8439 14.0819 28.8183 17 28.5C19.8263 28.1917 22.8721 29.1097 24 26.5C25.1438 23.8535 22.6686 21.8997 20.5 20C17.8974 17.72 15.3626 16.6844 12 17.5ZM34.5 23.5C34.1185 25.2265 33.6898 26.8127 35 28C36.4658 29.3281 41.6832 27.3266 46.5 28.5C48.7206 29.0409 50.7913 28.4397 52 26.5C53.5352 24.0363 51.6347 21.467 49.5 19.5C47.0212 17.2158 44.2514 17.1107 41 18C37.7926 18.8772 35.2174 20.2531 34.5 23.5ZM27.5 29.5C27.3748 28.5122 27 27 27 27C27 27 24.2441 30.7149 24 33.5C23.8095 35.6747 25 39 25 39C25 39 27.0793 38.0473 28.5 38C30.1093 37.9463 32.5 39 32.5 39C32.5 39 33.2324 35.9485 33 34C32.669 31.2239 30 27.5 30 27.5C30 27.5 29.8962 30.578 29.5 32.5C29.213 33.8922 28.5 36 28.5 36C28.5 36 27.7672 34.8313 27.5 34C26.9623 32.3269 27.721 31.2434 27.5 29.5Z" fill="white" stroke="white" stroke-width="0.5"/>
</svg>
