<svg width="35" height="28" viewBox="0 0 35 28" fill="none" xmlns="http://www.w3.org/2000/svg">
<g clip-path="url(#clip0)">
<path d="M12.7785 27.334C7.98926 26.8731 3.28206 25.6434 1.31209 24.3385C-0.754744 22.9695 -0.436018 21.5407 2.66914 18.2553C5.45729 15.3052 6.73999 12.8332 8.55019 6.92121C9.73904 3.03855 10.8361 0.597805 11.5778 0.185529C12.7231 -0.451126 13.5143 0.470343 15.0303 4.20667C16.6417 8.17805 18.0218 10.5865 19.7256 12.4003C20.2399 12.9479 20.74 13.3205 20.9606 13.3205C21.3965 13.3205 22.0352 12.5571 23.1809 10.667C24.1085 9.13676 24.8173 8.65578 25.8969 8.82403C26.8967 8.97984 27.6516 9.97287 28.5388 12.2993C28.9552 13.3911 29.5525 14.7971 29.8662 15.4237C30.4546 16.5991 31.95 18.7509 32.183 18.7574C32.4516 18.7649 34.4657 20.7886 34.7436 21.3302C35.5863 22.9722 34.3418 24.4223 31.1571 25.5093C27.3294 26.8157 23.8703 27.3386 18.4689 27.4274C16.2518 27.4639 13.6911 27.4218 12.7785 27.334Z" fill="white"/>
</g>
<defs>
<clipPath id="clip0">
<rect width="35" height="27.4406" fill="white"/>
</clipPath>
</defs>
</svg>
