<svg width="30" height="27" viewBox="0 0 30 27" fill="none" xmlns="http://www.w3.org/2000/svg">
<g clip-path="url(#clip0)">
<path d="M10.1775 26.0971C9.51536 25.435 9.43513 24.9198 9.82297 23.8205C10.1726 22.8297 10.6516 22.3096 12.1729 21.2689C12.9418 20.7429 14.2911 19.768 15.1712 19.1024C16.707 17.9409 17.4835 17.458 22.1001 14.7937C25.461 12.8541 30 11.0447 30 11.6446C30 11.9309 28.9199 12.7032 27.407 13.4986C25.4645 14.5199 20.007 18.2157 18.3837 19.6092C17.105 20.7069 15.4076 22.5567 13.6221 24.7982C12.0065 26.8265 11.208 27.1276 10.1775 26.0971ZM3.60681 24.2587C3.18416 23.8051 3.09384 23.2149 3.29716 22.2355C3.55904 20.9741 3.51931 19.7328 3.1959 19.0708C2.96451 18.5971 2.70808 18.3996 1.65453 17.8834C0.959436 17.5429 0.301148 17.1417 0.191666 16.992C-0.252508 16.3846 0.0989459 14.8745 1.00163 13.5119C1.75334 12.3772 4.50608 9.27596 6.16239 7.69779C7.87618 6.06485 8.96871 5.31755 10.3105 4.86043C11.3264 4.51434 11.9132 4.24056 15.2214 2.56945C19.1278 0.596088 23.0233 -0.552985 23.0233 0.268081C23.0233 0.407624 22.2548 0.821305 20.9228 1.39875C18.022 2.6563 17.5469 2.93818 15.4284 4.65902C14.4068 5.48886 12.7922 6.75678 11.8405 7.4766C10.0217 8.85216 8.63109 10.2451 7.18827 12.1364C5.33358 14.5677 5.13621 15.0773 5.69457 15.9931C5.85931 16.2633 5.99163 16.6853 5.99409 16.9308C6.00004 17.5255 6.29021 17.3368 6.57117 17.1162C6.98747 16.7894 7.71544 16.1285 8.91981 14.9948C12.1052 11.9961 16.3526 8.87042 19.2969 7.3581C21.1953 6.38304 26.2952 4.28657 27.7464 3.88468C29.0775 3.51607 29.85 3.48008 29.85 3.78671C29.85 4.05381 29.4793 4.27901 26.3144 5.9348C21.9541 8.216 20.1596 9.51495 16.7217 12.8787C14.8594 14.7008 11.5521 17.6888 9.2065 19.6683C8.93568 19.8969 7.96311 20.9585 7.04522 22.0274C6.12734 23.0964 5.2024 24.1078 4.98981 24.275C4.49098 24.6674 3.98197 24.6614 3.60681 24.2587Z" fill="#DCDCDC"/>
</g>
<defs>
<clipPath id="clip0">
<rect width="30" height="26.6741" fill="white"/>
</clipPath>
</defs>
</svg>
