<svg width="40" height="32" viewBox="0 0 40 32" fill="none" xmlns="http://www.w3.org/2000/svg">
<g clip-path="url(#clip0)">
<path d="M10.1904 31.1861C8.84186 30.9626 0.352686 29.0192 0.13348 28.8837C-0.163767 28.7 0.17577 28.4588 0.929664 28.3181C1.59452 28.194 6.40784 26.9668 8.43209 26.4053C9.31397 26.1607 9.70092 25.6004 9.38969 25.0189C9.20953 24.6822 4.97231 20.9536 1.13197 17.7523C-0.0312452 16.7826 -0.267762 16.4076 0.283937 16.4076C0.450312 16.4076 3.05829 17.4053 6.07944 18.6247C9.10059 19.8441 11.7332 20.8113 11.9298 20.774C12.7493 20.6187 12.4721 19.5925 9.89755 13.2503C7.45127 7.22406 7.05669 5.99934 7.67249 6.34395C7.83067 6.43248 9.9024 9.09319 12.2763 12.2566C16.6109 18.0328 16.9933 18.4267 17.5796 17.7202C17.7198 17.5513 18.1835 13.9792 18.7002 9.08784C19.5999 0.570388 19.6815 0 20.0004 0C20.2904 0 20.352 0.442413 21.2783 9.17933C22.1924 17.7999 22.2767 18.1989 23.1282 17.9286C23.3376 17.8622 25.4763 15.1967 27.8808 12.0053C30.2853 8.81398 32.3301 6.20288 32.4246 6.20288C32.817 6.20288 32.4817 7.20408 30.1776 12.9142C28.8472 16.2112 27.6796 19.1679 27.583 19.4846C27.3729 20.1738 27.6521 20.8097 28.165 20.8097C28.3612 20.8097 30.8567 19.8526 33.7106 18.6828C38.8487 16.5768 40 16.1864 40 16.5497C40 16.6528 38.6324 17.9011 36.961 19.3237C30.3396 24.9592 30.2098 25.091 30.5871 25.796C30.8294 26.2488 30.9881 26.3009 35.7981 27.5058C40.2304 28.6162 40.1155 28.5797 39.8834 28.8029C39.6115 29.0644 32.9338 30.5929 28.9855 31.2974C28.0113 31.4712 27.8948 31.2133 27.8894 28.8704C27.8853 27.091 27.8034 26.5093 27.4223 25.5549C26.7757 23.936 25.1472 22.1284 23.4282 21.3635C21.1098 20.3317 18.5235 20.3957 16.5566 21.3618C13.4007 22.9119 11.7964 25.7728 12.0651 29.3563C12.1769 30.8477 12.1453 31.0062 11.8007 31.2072C11.2639 31.5201 10.6564 31.2634 10.1904 31.1861V31.1861Z" fill="white"/>
</g>
<defs>
<clipPath id="clip0">
<rect width="40" height="31.3586" fill="white"/>
</clipPath>
</defs>
</svg>
