<svg width="35" height="28" viewBox="0 0 35 28" fill="none" xmlns="http://www.w3.org/2000/svg">
<g clip-path="url(#clip0)">
<path d="M8.91661 27.2879C7.73663 27.0923 0.3086 25.3918 0.116795 25.2733C-0.143296 25.1125 0.153799 24.9014 0.813456 24.7783C1.39521 24.6698 5.60686 23.596 7.37808 23.1046C8.14973 22.8906 8.48831 22.4004 8.21598 21.8915C8.05834 21.597 4.35077 18.3344 0.990472 15.5333C-0.0273395 14.6848 -0.234292 14.3567 0.248445 14.3567C0.394023 14.3567 2.676 15.2296 5.31951 16.2966C7.96302 17.3636 10.2666 18.2099 10.4386 18.1773C11.1557 18.0414 10.9131 17.1434 8.66036 11.594C6.51986 6.32105 6.1746 5.24942 6.71343 5.55096C6.85184 5.62842 8.6646 7.95654 10.7418 10.7246C14.5345 15.7787 14.8691 16.1234 15.3822 15.5052C15.5048 15.3574 15.9105 12.2318 16.3626 7.95186C17.1499 0.499089 17.2213 0 17.5003 0C17.7541 0 17.808 0.387112 18.6185 8.03192C19.4183 15.5749 19.4921 15.924 20.2371 15.6876C20.4204 15.6294 22.2917 13.2971 24.3957 10.5047C26.4997 7.71223 28.2888 5.42752 28.3715 5.42752C28.7148 5.42752 28.4215 6.30357 26.4054 11.2999C25.2413 14.1848 24.2197 16.7719 24.1352 17.049C23.9512 17.652 24.1956 18.2085 24.6444 18.2085C24.816 18.2085 26.9996 17.371 29.4967 16.3475C33.9926 14.5047 35 14.1631 35 14.481C35 14.5712 33.8034 15.6634 32.3409 16.9082C26.5471 21.8393 26.4335 21.9546 26.7637 22.5715C26.9757 22.9677 27.1146 23.0133 31.3233 24.0676C35.2016 25.0392 35.1011 25.0072 34.898 25.2025C34.6601 25.4313 28.8171 26.7688 25.3623 27.3852C24.5099 27.5373 24.408 27.3116 24.4032 25.2616C24.3997 23.7047 24.328 23.1957 23.9945 22.3606C23.4288 20.944 22.0038 19.3623 20.4997 18.693C18.4711 17.7903 16.2081 17.8462 14.487 18.6916C11.7256 20.0479 10.3218 22.5512 10.5569 25.6868C10.6548 26.9917 10.6272 27.1304 10.3256 27.3063C9.85589 27.58 9.32432 27.3555 8.91661 27.2879V27.2879Z" fill="#DCDCDC"/>
</g>
<defs>
<clipPath id="clip0">
<rect width="35" height="27.4388" fill="white"/>
</clipPath>
</defs>
</svg>
