<svg width="61" height="53" viewBox="0 0 61 53" fill="none" xmlns="http://www.w3.org/2000/svg">
<path fill-rule="evenodd" clip-rule="evenodd" d="M14.4999 32.5001C14.4999 32.5001 11.9193 35.8681 9.49994 36.5001C6.56704 37.2661 3.95364 36.8178 1.99993 34.5001C0.565033 32.7978 -0.0788522 31.1498 0.499935 29.0001C0.865992 27.6404 2.49993 26.0001 2.49993 26.0001C2.49993 26.0001 0.929122 23.6669 0.999935 22.0001C1.07406 20.2552 1.48357 18.8666 2.99993 18.0001C3.8644 17.5061 5.49993 17.5001 5.49993 17.5001C5.49993 17.5001 5.51929 16.1459 5.99993 15.5001C6.42025 14.9353 7.49993 14.5001 7.49993 14.5001C7.49993 14.5001 6.5016 12.735 6.49993 11.5001C6.4964 8.87308 8.5426 7.42879 10.9999 6.50006C13.583 5.5238 17.9999 7.50006 17.9999 7.50006C17.9999 7.50006 19.9151 3.88083 21.9999 2.50006C24.65 0.744866 26.8545 0.541723 29.9999 1.00006C33.2847 1.4787 37.4999 5.00006 37.4999 5.00006C37.4999 5.00006 40.5616 4.19411 42.4999 4.50006C45.444 4.96474 47.46 5.94813 48.9999 8.50006C49.5432 9.40036 49.9999 11.0001 49.9999 11.0001C49.9999 11.0001 52.7807 11.1985 53.4999 12.5001C54.0666 13.5255 53.4999 15.5001 53.4999 15.5001C53.4999 15.5001 56.4728 17.1963 57.4999 19.0001C58.4853 20.7305 59.0239 22.0789 58.4999 24.0001C58.2702 24.8425 57.4999 26.0001 57.4999 26.0001C57.4999 26.0001 60.1665 28.1655 59.9999 30.0001C59.7986 32.2173 57.7196 33.3273 55.4999 33.5001C53.5826 33.6493 50.9999 31.5001 50.9999 31.5001C50.9999 31.5001 46.7023 31.0877 43.9999 31.5001C41.3745 31.9007 37.4999 33.5001 37.4999 33.5001C37.4999 33.5001 33.9979 39.2279 35.4999 42.5001C37.1792 46.1585 41.166 45.2734 44.9999 46.5001C46.3539 46.9332 48.4999 47.5001 48.4999 47.5001C48.4999 47.5001 47.2992 47.9032 46.4999 48.0001C45.7246 48.094 44.9686 47.3752 44.4999 48.0001C43.9142 48.7811 46.4999 49.5001 46.4999 49.5001C46.4999 49.5001 44.6851 49.9223 43.4999 50.0001C41.5418 50.1285 39.681 47.9329 38.4999 49.5001C37.9007 50.2952 37.9999 52.0001 37.9999 52.0001C37.9999 52.0001 35.8178 51.1889 34.4999 50.5001C33.4909 49.9726 33.1374 48.9498 31.9999 49.0001C30.4764 49.0674 29.4999 52.0001 29.4999 52.0001C29.4999 52.0001 28.52 51.1449 27.9999 50.5001C27.558 49.952 27.6063 49.3578 26.9999 49.0001C25.6865 48.2251 23.9999 51.5001 23.9999 51.5001C23.9999 51.5001 22.9109 50.7193 22.4999 50.0001C22.1936 49.4639 22.3443 49.0126 21.9999 48.5001C21.0138 47.0324 19.2646 48.1115 17.4999 48.0001C15.1614 47.8524 11.4999 48.0001 11.4999 48.0001C11.4999 48.0001 13.2542 46.6564 14.4999 46.0001C17.6853 44.3217 21.7486 47.1459 23.4999 44.0001C24.6397 41.9528 24.3312 40.1908 23.4999 38.0001C22.6658 35.8017 21.5712 34.6128 19.4999 33.5001C17.7458 32.5576 14.4999 32.5001 14.4999 32.5001ZM19.4999 27.5001C17.8959 27.3594 15.4999 28.5001 15.4999 28.5001C15.4999 28.5001 18.6223 29.2061 20.4999 30.0001C22.3516 30.783 24.9999 32.5001 24.9999 32.5001C24.9999 32.5001 24.6034 30.8612 23.9999 30.0001C22.8463 28.3537 21.5026 27.6756 19.4999 27.5001ZM20.4999 23.5001C19.509 23.4029 17.9999 23.0001 17.9999 23.0001C17.9999 23.0001 19.3621 21.4606 20.4999 21.5001C21.7495 21.5434 22.9999 23.5001 22.9999 23.5001C22.9999 23.5001 21.4716 23.5953 20.4999 23.5001ZM27.9999 21.0001C27.0528 22.0419 25.9999 18.0001 25.9999 18.0001L27.9999 18.5001C27.9999 18.5001 28.6567 20.2776 27.9999 21.0001ZM35.4999 18.0001C35.6088 17.9905 35.688 18.0342 35.7432 18.1217L39.4999 20.0001C39.4999 20.0001 36.977 25.6428 35.4999 24.0001C34.7973 23.2186 36.2393 18.9074 35.7432 18.1217L35.4999 18.0001ZM39.4999 28.0001C38.3546 28.8191 36.4999 30.0001 36.4999 30.0001C36.4999 30.0001 38.945 29.4182 40.4999 29.0001C41.8727 28.6309 43.9999 28.0001 43.9999 28.0001C43.9999 28.0001 42.6325 26.3829 41.4999 26.5001C40.5288 26.6005 40.2941 27.4322 39.4999 28.0001Z" fill="white"/>
<path d="M35.7432 18.1217C35.688 18.0342 35.6088 17.9905 35.4999 18.0001L35.7432 18.1217ZM35.7432 18.1217L39.4999 20.0001C39.4999 20.0001 36.977 25.6428 35.4999 24.0001C34.7973 23.2186 36.2393 18.9074 35.7432 18.1217ZM14.4999 32.5001C14.4999 32.5001 11.9193 35.8681 9.49994 36.5001C6.56704 37.2661 3.95364 36.8178 1.99993 34.5001C0.565033 32.7978 -0.0788522 31.1498 0.499935 29.0001C0.865992 27.6404 2.49993 26.0001 2.49993 26.0001C2.49993 26.0001 0.929122 23.6669 0.999935 22.0001C1.07406 20.2552 1.48357 18.8666 2.99993 18.0001C3.8644 17.5061 5.49993 17.5001 5.49993 17.5001C5.49993 17.5001 5.51929 16.1459 5.99993 15.5001C6.42025 14.9353 7.49993 14.5001 7.49993 14.5001C7.49993 14.5001 6.5016 12.735 6.49993 11.5001C6.4964 8.87308 8.5426 7.42879 10.9999 6.50006C13.583 5.5238 17.9999 7.50006 17.9999 7.50006C17.9999 7.50006 19.9151 3.88083 21.9999 2.50006C24.65 0.744866 26.8545 0.541723 29.9999 1.00006C33.2847 1.4787 37.4999 5.00006 37.4999 5.00006C37.4999 5.00006 40.5616 4.19411 42.4999 4.50006C45.444 4.96474 47.46 5.94813 48.9999 8.50006C49.5432 9.40036 49.9999 11.0001 49.9999 11.0001C49.9999 11.0001 52.7807 11.1985 53.4999 12.5001C54.0666 13.5255 53.4999 15.5001 53.4999 15.5001C53.4999 15.5001 56.4728 17.1963 57.4999 19.0001C58.4853 20.7305 59.0239 22.0789 58.4999 24.0001C58.2702 24.8425 57.4999 26.0001 57.4999 26.0001C57.4999 26.0001 60.1665 28.1655 59.9999 30.0001C59.7986 32.2173 57.7196 33.3273 55.4999 33.5001C53.5826 33.6493 50.9999 31.5001 50.9999 31.5001C50.9999 31.5001 46.7023 31.0877 43.9999 31.5001C41.3745 31.9007 37.4999 33.5001 37.4999 33.5001C37.4999 33.5001 33.9979 39.2279 35.4999 42.5001C37.1792 46.1585 41.1659 45.2734 44.9999 46.5001C46.3539 46.9332 48.4999 47.5001 48.4999 47.5001C48.4999 47.5001 47.2992 47.9032 46.4999 48.0001C45.7246 48.094 44.9686 47.3752 44.4999 48.0001C43.9141 48.7811 46.4999 49.5001 46.4999 49.5001C46.4999 49.5001 44.6851 49.9223 43.4999 50.0001C41.5418 50.1285 39.681 47.9329 38.4999 49.5001C37.9007 50.2952 37.9999 52.0001 37.9999 52.0001C37.9999 52.0001 35.8178 51.1889 34.4999 50.5001C33.4909 49.9726 33.1374 48.9498 31.9999 49.0001C30.4764 49.0674 29.4999 52.0001 29.4999 52.0001C29.4999 52.0001 28.52 51.1449 27.9999 50.5001C27.558 49.952 27.6063 49.3578 26.9999 49.0001C25.6865 48.2251 23.9999 51.5001 23.9999 51.5001C23.9999 51.5001 22.911 50.7193 22.4999 50.0001C22.1936 49.4639 22.3443 49.0126 21.9999 48.5001C21.0138 47.0324 19.2646 48.1115 17.4999 48.0001C15.1614 47.8524 11.4999 48.0001 11.4999 48.0001C11.4999 48.0001 13.2542 46.6564 14.4999 46.0001C17.6853 44.3217 21.7486 47.1459 23.4999 44.0001C24.6397 41.9528 24.3312 40.1908 23.4999 38.0001C22.6658 35.8017 21.5712 34.6128 19.4999 33.5001C17.7458 32.5576 14.4999 32.5001 14.4999 32.5001ZM15.4999 28.5001C15.4999 28.5001 17.8959 27.3594 19.4999 27.5001C21.5026 27.6756 22.8463 28.3537 23.9999 30.0001C24.6034 30.8612 24.9999 32.5001 24.9999 32.5001C24.9999 32.5001 22.3516 30.783 20.4999 30.0001C18.6223 29.2061 15.4999 28.5001 15.4999 28.5001ZM17.9999 23.0001C17.9999 23.0001 19.509 23.4029 20.4999 23.5001C21.4716 23.5953 22.9999 23.5001 22.9999 23.5001C22.9999 23.5001 21.7495 21.5434 20.4999 21.5001C19.3621 21.4606 17.9999 23.0001 17.9999 23.0001ZM25.9999 18.0001C25.9999 18.0001 27.0528 22.0419 27.9999 21.0001C28.6567 20.2776 27.9999 18.5001 27.9999 18.5001L25.9999 18.0001ZM36.4999 30.0001C36.4999 30.0001 38.3546 28.8191 39.4999 28.0001C40.2941 27.4322 40.5288 26.6005 41.4999 26.5001C42.6325 26.3829 43.9999 28.0001 43.9999 28.0001C43.9999 28.0001 41.8727 28.6309 40.4999 29.0001C38.945 29.4182 36.4999 30.0001 36.4999 30.0001Z" stroke="white" stroke-width="0.5"/>
</svg>
