<svg width="20" height="27" viewBox="0 0 20 27" fill="none" xmlns="http://www.w3.org/2000/svg">
<g clip-path="url(#clip0)">
<path d="M8.17775 26.5569C8.14486 26.5241 8.14622 26.4228 8.18075 26.3318C8.21531 26.2409 9.48779 24.208 11.0085 21.8143C12.5292 19.4206 13.8287 17.3587 13.8962 17.2324C14.0917 16.867 13.9978 16.3905 13.6972 16.2226C13.4603 16.0903 12.8898 16.1633 7.24393 17.0478C3.83757 17.5815 0.932793 18.0168 0.78889 18.0153C0.367879 18.0106 0 17.6558 0 17.2543C0 16.8284 0.456966 15.9457 3.21113 11.0514C5.74943 6.54065 5.70562 6.71746 4.35423 6.43863C3.91133 6.34724 3.72269 6.0355 3.83632 5.58275C3.93389 5.19401 6.48709 0.999384 6.87391 0.592318C7.0628 0.393544 7.38833 0.179686 7.59731 0.117075C8.07748 -0.0267882 18.4723 -0.043956 18.847 0.098497C19.2161 0.238833 19.3412 0.531394 19.1864 0.892591C19.1167 1.05534 16.5842 3.75919 13.5586 6.90114C10.533 10.0431 8.00225 12.7193 7.93472 12.8482C7.83587 13.0368 7.83849 13.1189 7.94812 13.2688C8.07924 13.4481 8.21821 13.428 11.671 12.7314C13.6437 12.3334 15.4266 12.0081 15.6329 12.0085C16.1305 12.0096 16.3329 12.23 16.61 13.0727C17.1263 14.6425 17.292 14.7669 18.7288 14.6627C19.7968 14.5852 20.0869 14.6917 19.9789 15.1218C19.9455 15.255 19.1397 16.1259 18.1882 17.0571C17.2368 17.9883 15.2202 19.969 13.707 21.4587C8.30188 26.7795 8.3531 26.7323 8.17775 26.5569H8.17775Z" fill="#DCDCDC"/>
</g>
<defs>
<clipPath id="clip0">
<rect width="20" height="26.6098" fill="white"/>
</clipPath>
</defs>
</svg>
