<svg width="33" height="26" viewBox="0 0 33 26" fill="none" xmlns="http://www.w3.org/2000/svg">
<g clip-path="url(#clip0)">
<path d="M12.0483 25.7721C7.53274 25.3375 3.09451 24.178 1.23711 22.9477C-0.711616 21.657 -0.411103 20.3098 2.51662 17.2121C5.14545 14.4306 6.35485 12.0998 8.06161 6.52571C9.18252 2.86492 10.2169 0.563644 10.9162 0.174927C11.9961 -0.425347 12.742 0.443466 14.1714 3.96629C15.6907 7.71073 16.992 9.98158 18.5984 11.6917C19.0834 12.208 19.5549 12.5593 19.7629 12.5593C20.1738 12.5593 20.7761 11.8396 21.8563 10.0574C22.7308 8.61466 23.3992 8.16116 24.4171 8.3198C25.3598 8.4667 26.0715 9.40299 26.908 11.5965C27.3006 12.6259 27.8638 13.9515 28.1595 14.5423C28.7143 15.6506 30.1243 17.6794 30.344 17.6855C30.5972 17.6926 32.4963 19.6007 32.7583 20.1113C33.5528 21.6595 32.3794 23.0268 29.3767 24.0516C25.7677 25.2834 22.5063 25.7764 17.4135 25.8601C15.3231 25.8945 12.9087 25.8549 12.0483 25.7721Z" fill="#DCDCDC"/>
</g>
<defs>
<clipPath id="clip0">
<rect width="33" height="25.8725" fill="white"/>
</clipPath>
</defs>
</svg>
