<svg width="30" height="30" viewBox="0 0 30 30" fill="none" xmlns="http://www.w3.org/2000/svg">
<path fill-rule="evenodd" clip-rule="evenodd" d="M15 30C23.2843 30 30 23.2843 30 15C30 6.71573 23.2843 0 15 0C6.71573 0 0 6.71573 0 15C0 23.2843 6.71573 30 15 30ZM10.602 22.33L12.824 21.318L12.494 20.35C12.0393 20.482 11.702 20.548 11.482 20.548C11.1007 20.548 10.91 20.4013 10.91 20.108V14.344C10.8953 13.4787 10.778 12.8847 10.558 12.562C10.338 12.2247 10.008 11.9093 9.56799 11.616C9.12799 11.308 8.70267 11.154 8.29199 11.154C7.83734 11.154 7.06732 11.33 5.98199 11.682C4.89667 12.0193 4.03134 12.3713 3.38599 12.738C3.42999 13.8087 3.64267 14.6887 4.02399 15.378L5.19 15.29L5.366 13.002C6.12866 12.782 6.95734 12.6573 7.85199 12.628C8.24799 12.8333 8.52667 13.112 8.68799 13.464C8.84933 13.8013 8.92999 14.3073 8.92999 14.982V17.248L4.64001 17.358C3.61334 17.93 3.10001 18.7147 3.10001 19.712C3.10001 20.46 3.36401 21.0833 3.892 21.582C4.43466 22.0807 5.146 22.33 6.026 22.33L6.55399 22.308L9.04001 20.812C9.18668 21.164 9.42868 21.5013 9.76599 21.824C10.1033 22.132 10.382 22.3007 10.602 22.33ZM8.92999 19.91C7.66867 20.482 6.60535 20.7533 5.73999 20.724C5.35867 20.4893 5.168 20.152 5.168 19.712C5.168 18.788 6.05533 18.326 7.82999 18.326L8.92999 18.392V19.91ZM18.9364 20.944C18.6137 20.7973 18.0857 20.68 17.3524 20.592V6.6L16.4724 5.83C15.4604 5.85933 14.463 6.08667 13.4804 6.512L13.7444 7.546L15.3944 7.414V20.658C14.6317 20.8927 14.0744 21.098 13.7224 21.274L13.8324 22H18.8044L18.9364 20.944ZM25.4891 20.944C25.1665 20.7973 24.6385 20.68 23.9051 20.592V6.6L23.0251 5.83C22.0131 5.85933 21.0158 6.08667 20.0331 6.512L20.2971 7.546L21.9471 7.414V20.658C21.1844 20.8927 20.6271 21.098 20.2751 21.274L20.3851 22H25.3571L25.4891 20.944Z" fill="#907226"/>
</svg>
