<svg width="35" height="31" viewBox="0 0 35 31" fill="none" xmlns="http://www.w3.org/2000/svg">
<g clip-path="url(#clip0)">
<path d="M18.7856 30.2322C16.0503 29.6908 14.187 28.7135 12.2824 26.8214L10.8727 25.4208L10.877 26.3648C10.8811 27.2039 11.0632 28.3297 11.3464 29.2643C11.5051 29.788 11.0961 29.6284 10.2272 28.8275C7.72743 26.5233 6.22729 22.9538 6.01496 18.8047C5.91901 16.9293 5.94093 16.6673 6.19383 16.6673C6.35236 16.6673 6.65858 16.9152 6.8743 17.2181C7.47279 18.0586 9.50573 19.7397 10.9652 20.3699C14.5389 21.9129 18.6799 22.2178 22.0516 21.2507C23.8807 20.7261 25.7254 19.7555 27.2428 18.5341C27.8939 18.0101 28.4879 17.5804 28.5629 17.5791C28.863 17.5741 28.6643 18.1204 27.982 19.176C27.1641 20.4415 26.1295 21.5007 24.9453 22.2851C23.8696 22.9976 21.3472 23.8996 19.9232 24.0809L18.7855 24.2258L19.5925 24.817C20.7965 25.6992 22.0758 26.009 24.0499 25.8964C27.1209 25.7213 29.6727 24.5669 31.8933 22.348C32.8343 21.4078 34.5634 19.151 34.7575 18.6096C34.7998 18.4918 34.8979 18.4546 34.9755 18.5269C35.1565 18.6953 34.3009 21.1133 33.4772 22.7611C31.5936 26.5294 28.69 29.0996 25.2431 30.0499C23.8141 30.4439 20.3493 30.5417 18.7856 30.2322ZM14.4445 15.5066C14.4463 11.1216 20.3632 11.1441 20.3632 15.5057C20.3632 19.4915 14.4437 19.5617 14.4445 15.5066ZM27.9718 12.8084C21.7079 7.71132 13.3004 7.51132 7.55288 12.0558C6.57015 12.8328 6.32501 12.9743 6.32501 12.7014C6.32501 12.162 7.62549 10.3022 8.72222 9.27312C10.193 7.89312 12.8966 6.65897 15.0848 6.3687C15.944 6.25471 16.0013 6.20184 15.6705 5.90984C13.6793 4.15225 9.42836 4.52167 7.46687 5.19873C5.13795 6.00261 2.88498 7.92607 1.22997 10.4471C0.736924 11.1981 0.301242 11.9021 0.261771 12.0116C0.222318 12.121 0.1266 12.1516 0.0490647 12.0794C-0.147772 11.8962 0.260293 10.4909 1.04606 8.6461C2.51909 5.1877 4.76974 2.50195 7.67525 1.2842C10.8376 -0.041171 14.7272 -0.468656 17.7892 0.613853C19.9997 1.39536 21.6356 2.4841 23.3238 4.24583L24.1518 5.10992C24.2204 3.61701 24.0434 2.30949 23.7079 0.862759C23.8275 0.739951 25.1251 1.93629 26.0082 2.9836C27.1377 4.32306 27.8514 5.69572 28.3964 7.57689C29.0235 9.74171 29.4882 13.7692 29.1087 13.7499C29.0337 13.746 28.5558 13.2836 27.9718 12.8084Z" fill="#DCDCDC"/>
</g>
<defs>
<clipPath id="clip0">
<rect width="35" height="30.4152" fill="white"/>
</clipPath>
</defs>
</svg>
