<svg width="40" height="35" viewBox="0 0 40 35" fill="none" xmlns="http://www.w3.org/2000/svg">
<g clip-path="url(#clip0)">
<path d="M21.4692 34.5511C18.3432 33.9323 16.2137 32.8154 14.0371 30.653L12.4259 29.0523L12.4309 30.1312C12.4355 31.0902 12.6437 32.3768 12.9673 33.4449C13.1487 34.0434 12.6812 33.861 11.6882 32.9457C8.83135 30.3123 7.1169 26.2329 6.87424 21.491C6.76458 19.3478 6.78963 19.0483 7.07867 19.0483C7.25984 19.0483 7.60981 19.3316 7.85635 19.6778C8.54033 20.6384 10.8637 22.5596 12.5317 23.2798C16.6158 25.0433 21.3484 25.3918 25.2018 24.2865C27.2922 23.687 29.4004 22.5777 31.1347 21.1818C31.8787 20.583 32.5576 20.0919 32.6433 20.0904C32.9863 20.0847 32.7592 20.709 31.9795 21.9154C31.0447 23.3617 29.8623 24.5722 28.5089 25.4687C27.2795 26.283 24.3968 27.3138 22.7694 27.521L21.4691 27.6866L22.3914 28.3623C23.7674 29.3705 25.2295 29.7246 27.4856 29.5959C30.9953 29.3958 33.9116 28.0764 36.4495 25.5406C37.5249 24.466 39.501 21.8868 39.7229 21.268C39.7712 21.1334 39.8833 21.0909 39.972 21.1735C40.1789 21.3661 39.201 24.1295 38.2597 26.0127C36.1069 30.3193 32.7886 33.2567 28.8493 34.3428C27.2161 34.7931 23.2564 34.9048 21.4692 34.5511ZM16.508 17.7218C16.5101 12.7104 23.2722 12.7361 23.2722 17.7207C23.2722 22.276 16.5071 22.3562 16.508 17.7218ZM31.9678 14.6381C24.809 8.81292 15.2004 8.58434 8.63187 13.778C7.50875 14.666 7.22859 14.8278 7.22859 14.5159C7.22859 13.8994 8.71485 11.7739 9.96826 10.5978C11.6491 9.02069 14.7389 7.61023 17.2397 7.27849C18.2217 7.14822 18.2873 7.0878 17.9092 6.75409C15.6334 4.74541 10.7753 5.16761 8.53357 5.94138C5.87195 6.86011 3.29712 9.05835 1.40568 11.9395C0.842199 12.7978 0.344277 13.6024 0.299167 13.7275C0.254078 13.8526 0.144685 13.8875 0.056074 13.805C-0.168882 13.5956 0.297477 11.9896 1.1955 9.88124C2.87896 5.92879 5.45113 2.85935 8.77172 1.46764C12.3858 -0.0470701 16.8311 -0.535625 20.3305 0.701529C22.8568 1.59468 24.7264 2.83896 26.6557 4.85236L27.602 5.83989C27.6804 4.13371 27.4782 2.6394 27.0947 0.985993C27.2314 0.845641 28.7144 2.21289 29.7237 3.40981C31.0146 4.94062 31.8302 6.50938 32.453 8.65929C33.1697 11.1334 33.7008 15.7362 33.2671 15.7141C33.1813 15.7097 32.6352 15.1813 31.9678 14.6381Z" fill="white"/>
</g>
<defs>
<clipPath id="clip0">
<rect width="40" height="34.7603" fill="white"/>
</clipPath>
</defs>
</svg>
