<svg width="53" height="50" viewBox="0 0 53 50" fill="none" xmlns="http://www.w3.org/2000/svg">
<path d="M1.50006 11C1.51039 7.69044 7.90091 1.97339 12.5001 3C13.2234 3.16146 15.9554 6.03018 14.0001 6.5C12.0447 6.96982 7.62458 9.19394 7.50006 11C7.44 11.8712 7.15273 9.58015 6.50006 9C4.92823 7.60282 1.50006 11 1.50006 11Z" fill="white"/>
<path d="M22.5001 11.5C23.4858 11.3698 21.5665 11.1685 20.5001 10.5L17.2141 9.56114C17.9588 10.1266 20.3538 13.3898 22.5001 14.5C24.5885 15.5803 27.2504 15.9917 28.5001 14C29.3303 12.6768 29.9188 10.6536 28.5001 10C25.0754 8.4223 23.1326 12.3971 22.5001 11.5Z" fill="white"/>
<path d="M11.5001 0.999999C9.67574 1.33236 29.8059 3.01976 27.0001 5C24.6642 6.64855 18.1321 5.60357 18.5001 6.5C18.5001 6.5 21.4112 8.25646 23.5001 8.5C26.7512 8.87905 28.3024 5.30086 31.5001 6C34.0946 6.56728 36.3197 7.43276 37.0001 10C37.4033 11.5217 37.7841 13.0892 36.5001 14C34.8071 15.2009 32.5001 10.5 32.5001 10.5C32.5001 10.5 33.2334 14.9322 35.0001 17C37.7779 20.2514 42.1546 18.4839 42.0001 20C41.8304 21.6641 40.3474 26.9652 38.5001 27C35.9621 27.0478 38.5001 20.5 38.5001 20.5C38.5001 20.5 36.2265 21.2938 35.5001 22.5C32.7152 27.1238 36.0001 33.5 32.5001 34.5C29.0001 35.5 25.5106 36.4104 25.0001 33.5C24.5462 30.9125 28.0572 30.7682 30.0001 29C33.49 25.8239 34.7532 19.8932 34.0001 20C29.2854 22.7695 26.591 23.9552 21.5001 24C16.4091 24.0448 16.9368 22.6733 14.0001 23C8.40238 23.6228 4.10684 25.7766 2.00006 31C-0.0914743 36.1855 1.24681 40.8554 5.00006 45C9.06954 49.4938 13.9498 48.6139 20.0001 49C27.5296 49.4805 39.0001 45.5 39.0001 45.5C39.1716 44.8968 30.0578 47.0764 29.0001 44C28.4014 42.2589 34.0137 41.3515 40.0001 41.5C45.9865 41.6485 54.3379 33.4003 52 32C55.3775 28.6218 45.0583 37.7838 41.0001 36.5C39.3296 35.9715 47.5001 29.5 47.5001 29.5C48.7882 29.1781 51.6809 25.28 52 22L50.0001 13L45.0001 6C47.7401 11.3798 48.6774 13.9456 47.0001 16C47.7347 14.8253 42.7168 6.17352 37.0001 3.5C28.0707 -0.675969 12.015 0.338197 11.5001 0.999999Z" fill="white"/>
<path d="M52 22C52.4496 17.3789 52.3644 16.9958 50.0001 13L52 22Z" fill="white"/>
<path d="M50.0001 13C48.0474 10.2663 45.0001 6 45.0001 6M50.0001 13C52.3644 16.9958 52.4496 17.3789 52 22M50.0001 13C50.7811 16.5147 52 22 52 22M50.0001 13L52 22M50.0001 13L45.0001 6M45.0001 6C47.7401 11.3798 48.6774 13.9456 47.0001 16C47.7347 14.8253 42.7168 6.17352 37.0001 3.5C28.0707 -0.675969 12.015 0.338197 11.5001 0.999999C9.67574 1.33236 29.8059 3.01976 27.0001 5C24.6642 6.64855 18.1321 5.60357 18.5001 6.5C18.5001 6.5 21.4112 8.25646 23.5001 8.5C26.7512 8.87905 28.3024 5.30086 31.5001 6C34.0946 6.56728 36.3197 7.43276 37.0001 10C37.4033 11.5217 37.7841 13.0892 36.5001 14C34.8071 15.2009 32.5001 10.5 32.5001 10.5C32.5001 10.5 33.2334 14.9322 35.0001 17C37.7779 20.2514 42.1546 18.4839 42.0001 20C41.8304 21.6641 40.3474 26.9652 38.5001 27C35.9621 27.0478 38.5001 20.5 38.5001 20.5C38.5001 20.5 36.2265 21.2938 35.5001 22.5C32.7152 27.1238 36.0001 33.5 32.5001 34.5C29.0001 35.5 25.5106 36.4104 25.0001 33.5C24.5462 30.9125 28.0572 30.7682 30.0001 29C33.49 25.8239 34.7532 19.8932 34.0001 20C29.2854 22.7695 26.591 23.9552 21.5001 24C16.4091 24.0448 16.9368 22.6733 14.0001 23C8.40238 23.6228 4.10684 25.7766 2.00006 31C-0.0914743 36.1855 1.24681 40.8554 5.00006 45C9.06954 49.4938 13.9498 48.6139 20.0001 49C27.5296 49.4805 39.0001 45.5 39.0001 45.5C39.1716 44.8968 30.0578 47.0764 29.0001 44C28.4014 42.2588 34.0137 41.3515 40.0001 41.5C45.9865 41.6485 54.3379 33.4003 52 32C55.3775 28.6218 45.0583 37.7838 41.0001 36.5C39.3296 35.9716 47.5001 29.5 47.5001 29.5C48.7882 29.1781 51.6809 25.28 52 22M17.2141 9.56114L20.5001 10.5C21.5665 11.1685 23.4858 11.3698 22.5001 11.5C23.1326 12.3971 25.0754 8.4223 28.5001 10C29.9188 10.6536 29.3303 12.6768 28.5001 14C27.2504 15.9917 24.5885 15.5803 22.5001 14.5C20.3538 13.3898 17.9588 10.1266 17.2141 9.56114ZM17.2141 9.56114C17.1062 9.47923 17.0329 9.45393 17.0001 9.5L17.2141 9.56114ZM1.50006 11C1.51039 7.69044 7.90091 1.97339 12.5001 3C13.2234 3.16146 15.9554 6.03018 14.0001 6.5C12.0447 6.96982 7.62458 9.19394 7.50006 11C7.44 11.8712 7.15273 9.58015 6.50006 9C4.92823 7.60282 1.50006 11 1.50006 11Z" stroke="white" stroke-width="0.5"/>
</svg>
