<svg width="25" height="32" viewBox="0 0 25 32" fill="none" xmlns="http://www.w3.org/2000/svg">
<g clip-path="url(#clip0)">
<path d="M12.5251 31.4566C12.2225 31.3189 12.1184 31.1906 12.1184 30.9555C12.1184 30.554 12.4553 30.338 13.4856 30.079C13.9279 29.9679 14.3643 29.8151 14.4553 29.7396C14.7391 29.5041 14.6427 29.048 14.2371 28.7067C13.2747 27.8969 11.4192 27.8081 9.4284 28.4767C7.88894 28.9937 7.24061 29.0627 6.11062 28.8297C4.66691 28.532 3.28395 27.7865 2.19593 26.7194C1.10376 25.6482 0.567974 24.7522 0.230435 23.4324C-0.343696 21.1875 0.175775 18.8913 1.5572 17.5677C2.48155 16.682 4.19594 16.1827 4.60796 16.6791C4.73456 16.8317 4.66545 16.92 4.19896 17.2017C2.57484 18.1827 2.43035 20.4141 3.89093 21.9584C5.11672 23.2545 6.65613 23.7519 9.44646 23.7533C12.6953 23.755 13.9687 24.0229 15.2037 24.9645C15.8669 25.4702 16.5933 26.4367 16.767 27.0446C16.9762 27.7766 17.093 27.9062 17.3971 27.7434C17.7776 27.5398 18.1182 26.6588 18.1213 25.8704C18.1284 24.0565 16.8958 22.2534 15.0437 21.3684C14.32 21.0226 13.9238 20.9383 10.9529 20.4985C9.99259 20.3562 9.56836 20.169 8.92323 19.6026C8.43201 19.1713 8.11466 18.6447 8.11466 18.2608C8.11466 17.8894 8.2453 17.866 9.0758 18.0885C9.69487 18.2544 9.90007 18.2636 10.2011 18.1389C10.7551 17.9094 11.0497 17.3188 11.052 16.433C11.0567 14.6669 9.58598 13.4659 6.30047 12.5529C4.4902 12.0498 2.87366 10.8266 2.19957 9.44996C1.48262 7.98578 1.27249 5.97235 1.67524 4.42609C2.42196 1.55923 5.09454 -0.195912 8.38831 0.0174893C9.87094 0.113548 11.0003 0.599488 10.836 1.0707C10.8188 1.12003 10.2417 1.16817 9.55352 1.17767C8.7248 1.18912 8.11224 1.26609 7.73931 1.40563C5.92118 2.08596 5.15831 3.52416 5.66943 5.30792C5.9751 6.37472 6.86394 7.18256 8.88039 8.22626C10.8984 9.27079 10.9651 9.31851 12.6134 10.9C14.1965 12.419 14.7658 12.7709 15.64 12.7709C17.6599 12.7709 18.3369 10.318 16.8148 8.51482C16.3856 8.00647 16.0463 7.82536 14.308 7.17681C13.1774 6.75502 12.9246 6.61405 12.8917 6.38728C12.8135 5.84709 13.7249 5.72531 15.3455 6.05937C17.2336 6.44859 19.2997 7.664 21.0686 9.42605C22.7574 11.1083 23.7917 12.9387 24.4367 15.3862C25.9151 20.9964 24.4252 26.5826 20.6512 29.58C19.7225 30.3177 18.1749 31.0572 16.998 31.3259C15.6909 31.6243 13.0622 31.7011 12.5251 31.4566Z" fill="#DCDCDC"/>
</g>
<defs>
<clipPath id="clip0">
<rect width="25" height="31.6022" fill="white"/>
</clipPath>
</defs>
</svg>
