<svg width="35" height="47" viewBox="0 0 35 47" fill="none" xmlns="http://www.w3.org/2000/svg">
<path fill-rule="evenodd" clip-rule="evenodd" d="M21.9999 1C21.9999 1 10.2423 10.3848 5.99994 17C1.7576 23.6152 -0.717448 28.854 2.49994 37C5.23133 43.9155 11.5819 47.0072 18.9999 46.5C26.3641 45.9965 32.5338 42.2342 34 35C35.1531 29.3101 32.5 25 28.9999 21C25.4999 17 22.7401 15.7214 21.4999 11C20.5066 7.21817 21.9999 1 21.9999 1ZM26.5 23.5C26.5 23.5 26.5473 23.5 26.5982 23.5726C27.0304 23.8966 28.7747 25.2491 29.5 26.5C30.595 28.3886 31.452 30.5354 30.5 32.5C29.835 33.8724 29.022 34.4042 27.5 34.5C25.7033 34.6131 23.7865 33.2875 24 31.5C24.322 28.8039 26 28.5 26.5 26C26.8463 24.2685 26.7129 23.7363 26.5982 23.5726C26.5351 23.5254 26.5 23.5 26.5 23.5Z" fill="white"/>
<path d="M26.5982 23.5726C26.5473 23.5 26.5 23.5 26.5 23.5C26.5 23.5 26.5351 23.5254 26.5982 23.5726ZM26.5982 23.5726C27.0304 23.8966 28.7747 25.2491 29.5 26.5C30.595 28.3886 31.452 30.5354 30.5 32.5C29.835 33.8724 29.022 34.4042 27.5 34.5C25.7033 34.6131 23.7865 33.2875 24 31.5C24.322 28.8039 26 28.5 26.5 26C26.8463 24.2685 26.7129 23.7363 26.5982 23.5726ZM21.9999 1C21.9999 1 10.2423 10.3848 5.99994 17C1.7576 23.6152 -0.717448 28.854 2.49994 37C5.23133 43.9155 11.5819 47.0072 18.9999 46.5C26.3641 45.9965 32.5338 42.2342 34 35C35.1531 29.3101 32.5 25 28.9999 21C25.4999 17 22.7401 15.7214 21.4999 11C20.5066 7.21817 21.9999 1 21.9999 1Z" stroke="white" stroke-width="0.5"/>
</svg>
