<svg width="65" height="57" viewBox="0 0 65 57" fill="none" xmlns="http://www.w3.org/2000/svg">
<path fill-rule="evenodd" clip-rule="evenodd" d="M36.2576 1.64379C33.2909 2.8841 25.2971 5.81081 25.5 9.50003C25.5901 11.1372 28.8525 12.528 29 14C29.1475 15.4721 25.9995 17.5205 25 17C25 17 23.1313 13.5813 21 13C19.0789 12.4761 17.9052 14.5791 16 14C13.5653 13.26 12.7586 8.89966 12.5567 7.4606C12.0659 9.63093 8.49546 18.4839 11.5 19.5C12.6251 19.8805 13.3242 19.168 14.5 19C17.6315 18.5528 18.9958 21.8469 18 22.5L16.5 25.5C16.5 25.5 14.42 24.4341 13 24.5C10.6191 24.6105 10.3315 27.5052 8 28C5.70873 28.4863 2.57719 26.7958 1.19921 25.9515C2.63703 27.8837 5.97002 34.2271 9.5 34.5C11.2636 34.6364 12.8522 31.1898 15 31.5C17.1478 31.8102 18.5 34.5 18.5 34.5C18.5 34.5 14.5 35.5 14.5 37.5C14.5 39.5 14.9938 40.8079 14 42.5C12.8736 44.4178 9.47774 44.8699 7.66688 44.9728C10.5593 45.6334 17.5442 47.5496 21 45.5C22.5115 44.6036 19.8719 42.3475 21 41C22.0336 39.7654 23.4046 39.7825 25 40C26.0419 40.1421 27.5 41 27.5 41C27.5 41 26.1172 42.6954 26 44C25.7649 46.6165 30.0141 46.4184 30.5 49C30.8743 50.9886 29.2187 53.4125 28.0571 54.8235C31.1942 52.8365 39.9184 49.3701 38.5 47C37.5755 45.4553 35.2572 45.7818 35 44C34.7035 41.9456 38.5 40 38.5 40C38.5 40 40.3478 43.5019 42.5 44C44.2539 44.4059 45.2425 42.6101 47 43C49.6677 43.5919 50.7178 48.429 50.9487 49.6968C51.1776 47.9836 54.8662 39.6162 52 38C50.4598 37.1316 48.947 38.5162 47.5 37.5C46.0708 36.4963 44.4869 34.9226 45.5 33.5C45.9084 32.9265 47 32.5 47 32.5C49.1479 32.5 51.6861 32.737 52.5 32.5C53.3139 32.2631 53.5736 29.6526 57 29.5C59.1111 29.406 61.7562 30.9602 63.1107 31.8678C61.1922 29.4893 56.8933 21.7046 53.5 22.5C51.4791 22.9738 51.5755 25.9732 49.5 26C47.5475 26.0252 45.5 23 45.5 23C45.5 23 48.7189 22.1683 49.5 20.5C50.2498 18.8987 48.5223 17.7025 49 16C49.672 13.605 53.3733 12.8468 55.8152 12.608C51.6833 11.9351 43.108 9.38454 42.5 12.5C42.2382 13.8416 43.2338 14.8469 42.5 16C41.3469 17.8121 37 16 37 16C37 16 37.5714 14.1856 37.5 13C37.324 10.0764 33.0406 9.92868 33 7.00003C32.9717 4.95552 35.0932 2.71684 36.2576 1.64379ZM20 23C21.2194 20.8345 22.3823 19.8008 24.5 18.5C27.244 16.8144 29.2828 16.3567 32.5 16.5C35.5843 16.6374 37.5 17.5 40 19C42.5 20.5 44.5 23.5 44.5 23.5C46.2574 25.2573 45.9469 27.4709 45.5 30C45.1653 31.8938 44.6278 32.9424 43.5 34.5C42.2827 36.1813 41.2858 36.9421 39.5 38C37.215 39.3537 35.6542 39.9058 33 40C30.8183 40.0775 29.0757 40.1764 27 39.5C24.2589 38.6067 22.8864 37.6802 21 35.5C19.3391 33.5804 18.7235 32.0286 18.5 29.5C18.2706 26.905 18.7218 25.27 20 23Z" fill="white"/>
<path d="M31.5 19.5C28.8442 19.5073 27.0285 19.7857 25 21.5C23.1313 23.0793 22.3612 24.5802 22 27C21.6153 29.5766 21.9675 31.3933 23.5 33.5C25.196 35.8314 27.1671 36.4648 30 37C33.3122 37.6257 35.7508 37.4504 38.5 35.5C40.7968 33.8705 42.1136 32.2895 42.5 29.5C42.8314 27.1076 42.4527 25.4296 41 23.5C39.6819 21.7492 36.2576 20.5 36.2576 20.5C36.2576 20.5 33.3986 19.4948 31.5 19.5Z" fill="white"/>
<path d="M36.2576 1.64379C33.2909 2.8841 25.2971 5.81081 25.5 9.50003C25.5901 11.1372 28.8525 12.528 29 14C29.1475 15.4721 25.9995 17.5205 25 17C25 17 23.1313 13.5813 21 13C19.0789 12.4761 17.9052 14.5791 16 14C13.5653 13.26 12.7586 8.89966 12.5567 7.4606M36.2576 1.64379C35.0932 2.71684 32.9717 4.95552 33 7.00003C33.0406 9.92868 37.324 10.0764 37.5 13C37.5714 14.1856 37 16 37 16C37 16 41.3469 17.8121 42.5 16C43.2338 14.8469 42.2382 13.8416 42.5 12.5C43.108 9.38454 51.6833 11.9351 55.8152 12.608M36.2576 1.64379C36.6969 1.23895 37 1.00003 37 1.00003C37.7024 0.990791 37.2764 1.21785 36.2576 1.64379ZM12.5567 7.4606C12.0659 9.63093 8.49546 18.4839 11.5 19.5C12.6251 19.8805 13.3242 19.168 14.5 19C17.6315 18.5528 18.9958 21.8469 18 22.5L16.5 25.5C16.5 25.5 14.42 24.4341 13 24.5C10.6191 24.6105 10.3315 27.5052 8 28C5.70873 28.4863 2.57719 26.7958 1.19921 25.9515M12.5567 7.4606C12.6387 7.09814 12.6348 6.92207 12.5 7.00003C12.5 7.00003 12.5161 7.17127 12.5567 7.4606ZM1.19921 25.9515C2.63703 27.8837 5.97002 34.2271 9.5 34.5C11.2636 34.6364 12.8522 31.1898 15 31.5C17.1478 31.8102 18.5 34.5 18.5 34.5C18.5 34.5 14.5 35.5 14.5 37.5C14.5 39.5 14.9938 40.808 14 42.5C12.8736 44.4178 9.47774 44.8699 7.66688 44.9728M1.19921 25.9515C0.836313 25.4638 0.594145 25.2572 0.5 25.5C0.5 25.5 0.760894 25.6829 1.19921 25.9515ZM7.66688 44.9728C10.5593 45.6334 17.5442 47.5496 21 45.5C22.5115 44.6036 19.8719 42.3475 21 41C22.0336 39.7654 23.4046 39.7825 25 40C26.0419 40.1421 27.5 41 27.5 41C27.5 41 26.1172 42.6954 26 44C25.7649 46.6165 30.0141 46.4184 30.5 49C30.8743 50.9886 29.2187 53.4125 28.0571 54.8235M7.66688 44.9728C6.61632 44.7328 6.10563 44.6585 6.5 45C6.5 45 6.96407 45.0127 7.66688 44.9728ZM28.0571 54.8235C31.1942 52.8365 39.9184 49.3701 38.5 47C37.5755 45.4553 35.2572 45.7818 35 44C34.7035 41.9456 38.5 40 38.5 40C38.5 40 40.3478 43.5019 42.5 44C44.2539 44.4059 45.2425 42.6101 47 43C49.6677 43.5919 50.7178 48.429 50.9487 49.6968M28.0571 54.8235C27.269 55.3226 26.8336 55.7284 27 56C27 56 27.4642 55.5437 28.0571 54.8235ZM50.9487 49.6968C51.1776 47.9836 54.8662 39.6162 52 38C50.4598 37.1316 48.947 38.5162 47.5 37.5C46.0708 36.4963 44.4869 34.9226 45.5 33.5C45.9084 32.9265 47 32.5 47 32.5C49.1479 32.5 51.6861 32.737 52.5 32.5C53.3139 32.2631 53.5736 29.6526 57 29.5C59.1111 29.406 61.7562 30.9602 63.1107 31.8678M50.9487 49.6968C50.925 49.8742 50.9384 49.9802 51 50C51 50 50.9838 49.8898 50.9487 49.6968ZM63.1107 31.8678C61.1922 29.4893 56.8933 21.7046 53.5 22.5C51.4791 22.9738 51.5755 25.9732 49.5 26C47.5475 26.0252 45.5 23 45.5 23C45.5 23 48.7189 22.1683 49.5 20.5C50.2498 18.8987 48.5223 17.7025 49 16C49.672 13.605 53.3733 12.8468 55.8152 12.608M63.1107 31.8678C63.5361 32.3953 63.8445 32.6569 64 32.5C64 32.5 63.6624 32.2376 63.1107 31.8678ZM55.8152 12.608C57.0585 12.8105 57.8995 12.843 58 12.5C58 12.5 57.0753 12.4849 55.8152 12.608ZM24.5 18.5C22.3823 19.8008 21.2194 20.8345 20 23C18.7218 25.27 18.2706 26.905 18.5 29.5C18.7235 32.0286 19.3391 33.5804 21 35.5C22.8864 37.6802 24.2589 38.6067 27 39.5C29.0757 40.1764 30.8183 40.0775 33 40C35.6542 39.9058 37.215 39.3537 39.5 38C41.2858 36.9421 42.2827 36.1813 43.5 34.5C44.6278 32.9424 45.1653 31.8938 45.5 30C45.9469 27.4709 46.2574 25.2573 44.5 23.5C44.5 23.5 42.5 20.5 40 19C37.5 17.5 35.5843 16.6374 32.5 16.5C29.2828 16.3567 27.244 16.8144 24.5 18.5ZM31.5 19.5C28.8442 19.5073 27.0285 19.7857 25 21.5C23.1313 23.0793 22.3613 24.5802 22 27C21.6153 29.5766 21.9675 31.3933 23.5 33.5C25.196 35.8314 27.1671 36.4648 30 37C33.3122 37.6257 35.7508 37.4504 38.5 35.5C40.7968 33.8705 42.1136 32.2895 42.5 29.5C42.8314 27.1076 42.4527 25.4296 41 23.5C39.6819 21.7492 36.2576 20.5 36.2576 20.5C36.2576 20.5 33.3986 19.4948 31.5 19.5Z" stroke="white" stroke-width="0.5"/>
</svg>
